<?xml version="1.0" encoding="UTF-8"?> <svg xmlns="http://www.w3.org/2000/svg" width="38" height="39" viewBox="0 0 38 39" fill="none"><g clip-path="url(#clip0_1242_755)"><path d="M23.4709 28.8676L18.2088 38.1246C17.9242 38.6251 17.2143 38.6251 16.9297 38.1246L11.2501 28.13L0.0991815 8.45731C-0.116392 8.07751 0.0323539 7.5924 0.420386 7.40141C5.35701 4.97482 11.3693 6.76618 14.2149 11.6376L23.4594 27.325C23.7382 27.7985 23.7425 28.389 23.4709 28.8676Z" fill="#222222"></path><path d="M37.8982 2.87466L28.8232 18.8816C28.5509 19.3624 27.8726 19.3734 27.5859 18.9007L24.4615 13.7599C23.85 12.7544 23.4375 11.6319 23.2881 10.4588C22.997 8.17495 23.6078 5.90057 25.0026 4.04112C27.7224 0.557112 32.7373 -0.672279 37.5784 1.79382C37.97 1.9936 38.1173 2.48828 37.8982 2.87466Z" fill="#222222"></path></g><defs><clipPath id="clip0_1242_755"><rect width="38" height="38" fill="white" transform="translate(0 0.5)"></rect></clipPath></defs></svg> 