<?xml version="1.0" encoding="UTF-8"?> <svg xmlns="http://www.w3.org/2000/svg" width="512" height="512" viewBox="0 0 512 512" fill="none"><g clip-path="url(#clip0_1260_219)"><path d="M316.24 382.216L245.339 506.942C241.505 513.686 231.939 513.686 228.105 506.942L151.58 372.278L1.33634 107.214C-1.56822 102.097 0.435926 95.5608 5.66414 92.9874C72.1787 60.2924 153.187 84.4285 191.527 150.065L316.085 361.432C319.841 367.811 319.899 375.768 316.24 382.216Z" fill="#222222"></path><path d="M510.628 31.9954L388.355 247.668C384.686 254.146 375.546 254.294 371.683 247.925L329.586 178.66C321.347 165.112 315.79 149.987 313.776 134.182C309.855 103.41 318.084 72.7656 336.877 47.7119C373.523 0.769511 441.093 -15.7949 506.319 17.4325C511.596 20.1243 513.581 26.7895 510.628 31.9954Z" fill="#222222"></path></g><defs><clipPath id="clip0_1260_219"><rect width="512" height="512" fill="white"></rect></clipPath></defs></svg> 